<svg width="967" height="939" fill="none" xmlns="http://www.w3.org/2000/svg"><path fill-rule="evenodd" clip-rule="evenodd" d="M823.037 72.738c70.704 39.484 138.898 87.793 167.981 165.229 33.052 88.014 54.912 197.362 2.256 288.036-52.226 89.931-166.192 113.606-259.406 154.763-77.148 34.064-156.757 75.675-233.665 62.942-72.896-12.068-106.577-86.422-163.897-128.76-64.922-47.952-174.926-53.362-193.748-135.403-18.743-81.694 69.264-161.292 106.576-244.559 39.523-88.2 33.637-211.15 118.275-257.22 85.781-46.693 167.563 36.026 254.715 54.192 68.535 14.286 141.379 7.533 200.913 40.78z" fill="url(#paint0_linear)" fill-opacity=".7"/><defs><linearGradient id="paint0_linear" x1="842.364" y1="69.06" x2="314.636" y2="656.94" gradientUnits="userSpaceOnUse"><stop stop-color="#6D678E"/><stop offset="1" stop-color="#F6B5CC"/></linearGradient></defs></svg>