<svg width="858" height="916" fill="none" xmlns="http://www.w3.org/2000/svg"><path fill-rule="evenodd" clip-rule="evenodd" d="M412.97-4.293c71.425-48.3 150.021-90.079 237.496-81.182 99.424 10.112 213.725 40.842 274.53 133.259 60.306 91.659 28.076 210.557 22.403 318.05-4.695 88.965-3.405 183.805-52.41 250.547-46.449 63.26-133.205 60.159-200.913 94.462-76.687 38.852-134.628 140.332-221.549 119.568-86.553-20.677-119.875-141.315-181.013-215.738-64.761-78.833-184.309-131.06-187.418-232.751-3.151-103.066 114.636-141.519 173.717-215.394C324.274 108.434 352.83 36.377 412.97-4.292z" fill="url(#paint0_linear)"/><defs><linearGradient id="paint0_linear" x1="418.756" y1="-24.298" x2="723.539" y2="751.073" gradientUnits="userSpaceOnUse"><stop stop-color="#6D678E"/><stop offset="1" stop-color="#F6B5CC"/></linearGradient></defs></svg>