<svg width="50" height="50" fill="none" xmlns="http://www.w3.org/2000/svg"><circle cx="25.5" cy="24.5" r="24.5" fill="#fff"/><path d="M25 50c-3.385 0-6.624-.66-9.717-1.977C12.191 46.703 9.53 44.93 7.3 42.7c-2.23-2.23-4.004-4.89-5.322-7.983A24.526 24.526 0 010 25c0-3.385.66-6.624 1.978-9.717C3.296 12.191 5.07 9.53 7.3 7.3c2.23-2.23 4.89-4.004 7.983-5.322A24.526 24.526 0 0125 0c3.385 0 6.624.66 9.717 1.978C37.809 3.296 40.47 5.07 42.7 7.3c2.23 2.23 4.004 4.89 5.322 7.983A24.527 24.527 0 0150 25c0 3.385-.66 6.624-1.977 9.717-1.319 3.092-3.093 5.753-5.323 7.983-2.23 2.23-4.89 4.004-7.983 5.322A24.527 24.527 0 0125 50zm14.697-37.5a9.247 9.247 0 00-.879.537l-.952.635-.903.488-1.026.342c-1.204-1.335-2.685-2.002-4.443-2.002-3.808 0-5.713 1.595-5.713 4.785v2.881c-5.24-.26-9.26-2.181-12.06-5.762-.814.847-1.221 1.774-1.221 2.784 0 2.148.797 3.776 2.393 4.882-.196 0-.472.017-.83.05a3.684 3.684 0 01-.855 0 2.445 2.445 0 01-.708-.245c0 1.497.399 2.742 1.196 3.735.798.993 1.896 1.636 3.296 1.93-.325.39-.781.585-1.367.585a2.21 2.21 0 01-1.367-.44c0 1.27.61 2.255 1.83 2.955 1.222.7 2.597 1.066 4.127 1.098-.586.88-1.44 1.538-2.564 1.978a9.76 9.76 0 01-3.588.659c-.456 0-1.083-.114-1.88-.342-.798-.228-1.213-.342-1.245-.342.52 1.042 1.586 1.937 3.198 2.686 1.611.749 3.654 1.123 6.128 1.123 2.18 0 4.215-.383 6.103-1.148 1.888-.764 3.5-1.782 4.834-3.051a19.962 19.962 0 003.443-4.346 20.444 20.444 0 002.148-5.054c.472-1.741.708-3.458.708-5.151 0-.065.195-.203.586-.415.39-.212.846-.497 1.367-.855s.912-.732 1.172-1.123c-1.758 0-2.93.033-3.516.098 1.14-.683 2.002-2.002 2.588-3.955z" fill="#1FCAF0"/></svg>