<svg width="56" height="42" fill="none" xmlns="http://www.w3.org/2000/svg"><path d="M34.626 0c-1.11.009-2.212.063-3.376.374-1.268.343-2.471.89-3.562 1.62C26.156 1.097 24.672.36 23.25.186c-1.766-.217-3.406-.1-5.312-.06-2.26.046-3.734 1.196-6.126 2.117C9.422 3.16 6.344 4.05 2 4.05H0v19.186l1.126.56 3.686 1.808 13.126 14.575.062.062c1.5 1.48 3.524 1.846 5.312 1.744 1.79-.1 3.47-.622 4.812-1.431 2.954-1.776 11-7.351 11-7.351l.188-.126.126-.123c.952-.943 1.43-2.094 1.75-3.302l7.686-3.863 5.75-1.93L56 23.42V4.05h-2a25.756 25.756 0 01-9.812-1.87C41.796 1.249 40.344.11 38.06.063 36.84.039 35.732-.007 34.624 0h.002zm.06 3.988c.9-.008 1.94.04 3.252.061.21.008 2.132.826 4.812 1.87 2.266.887 5.414 1.674 9.25 1.93v12.707l-4.626 1.559h-.124l-.126.06-6.06 3.053a7.071 7.071 0 00-1.5-2.491l-.126-.188-8.5-10.4-1.25-1.56-1.564 1.246-5.374 4.362c-1.804 1.245-3.266.887-4.75.187-.43-.203-.406-.265-.75-.498l9.126-7.54.124-.123c2.71-2.679 4.376-3.606 5.812-3.986.72-.196 1.478-.241 2.376-.25h-.002zm-13.934.061a14.631 14.631 0 012 .062c.524.062 1.118.506 1.626.686-.204.187-.352.295-.564.498l-.124.126-10.938 9.03-1.688 1.37 1.5 1.558s1.446 1.558 3.688 2.617c2.242 1.058 5.704 1.658 8.812-.498l.126-.126 3.874-3.175 7.376 9.031.062.126.062.06c1.32 1.301 1.29 3.348 0 4.674-.016.014.016.046 0 .06-.016.01-.28.165-.312.19l-2.626-3.553-3.25 2.368 2.564 3.425c-1.04.701-1.508 1.068-2.626 1.808l-2.686-3.614-3.252 2.368 2.564 3.424c-.228.14-.696.453-.876.563-.632.38-1.852.809-2.938.87-1.022.056-1.804-.179-2.186-.498l-.062-.062L7.502 22.675l-.25-.313L4 20.743V7.85c3.82-.25 6.992-1.005 9.25-1.868 2.672-1.02 4.58-1.862 4.812-1.87l2.688-.062h.002z" fill="#fff"/></svg>