<svg width="103" height="103" fill="none" xmlns="http://www.w3.org/2000/svg"><path fill-rule="evenodd" clip-rule="evenodd" d="M28 65.5a1.5 1.5 0 011.5-1.5h45a1.5 1.5 0 110 3h-45a1.5 1.5 0 01-1.5-1.5zm9.36-42.975A1.499 1.499 0 0138.5 22h27a1.498 1.498 0 011.14.525l8.277 9.657A4.5 4.5 0 0176 35.11v.39h-3v-.39a1.5 1.5 0 00-.36-.975L64.81 25H39.19l-7.83 9.135a1.5 1.5 0 00-.36.975v.39h-3v-.39a4.5 4.5 0 011.083-2.928l8.28-9.66-.003.003z" fill="#fff"/><path d="M35.125 39.625A4.125 4.125 0 0039.25 35.5h3a4.125 4.125 0 008.25 0h3a4.125 4.125 0 008.25 0h3a4.125 4.125 0 008.25 0h3a7.125 7.125 0 01-12.75 4.374 7.113 7.113 0 01-5.625 2.75A7.11 7.11 0 0152 39.875a7.11 7.11 0 01-5.625 2.75 7.11 7.11 0 01-5.625-2.75A7.125 7.125 0 0128 35.5h3a4.125 4.125 0 004.125 4.125z" fill="#fff"/><path d="M42.25 35.5a1.5 1.5 0 11-3 0 1.5 1.5 0 013 0zm11.25 0a1.5 1.5 0 11-3 0 1.5 1.5 0 013 0zm11.25 0a1.5 1.5 0 11-3 0 1.5 1.5 0 013 0z" fill="#fff"/><path fill-rule="evenodd" clip-rule="evenodd" d="M34 42.538V40h-3v1.31a7.119 7.119 0 003 1.228zm-3 2.21c.933.42 1.941.697 3 .814V64h-3V44.749zm39 .814a10.065 10.065 0 003-.81V64h-3V45.562zm3-4.251a7.119 7.119 0 01-3 1.227V40h3v1.31zM37 47.5a1.5 1.5 0 011.5-1.5h12a1.5 1.5 0 011.5 1.5V64h-3V49h-9v15h-3V47.5zm18 0a1.5 1.5 0 011.5-1.5h9a1.5 1.5 0 011.5 1.5v12a1.5 1.5 0 01-1.5 1.5h-9a1.5 1.5 0 01-1.5-1.5v-12zm3 1.5v9h6v-9h-6z" fill="#fff"/><path d="M30.571 73l.802 2.418h2.595l-2.1 1.495.803 2.419-2.1-1.495-2.099 1.495.802-2.419-2.1-1.495h2.596l.8-2.418zm10.715 0l.802 2.418h2.594l-2.099 1.495.802 2.419-2.1-1.495-2.098 1.495.801-2.419-2.099-1.495h2.595L41.286 73zM52 73l.802 2.418h2.595l-2.1 1.495.802 2.419L52 77.837l-2.1 1.495.803-2.419-2.1-1.495h2.595L52 73zm10.715 0l.801 2.418h2.595l-2.1 1.495.803 2.419-2.1-1.495-2.099 1.495.802-2.419-2.1-1.495h2.596L62.715 73zm10.713 0l.802 2.418h2.595l-2.1 1.495.803 2.419-2.1-1.495-2.099 1.495.802-2.419-2.1-1.495h2.595L73.428 73z" fill="#fff"/></svg>