<svg width="40" height="40" fill="none" xmlns="http://www.w3.org/2000/svg"><path d="M20 0C8.954 0 0 8.954 0 20s8.954 20 20 20 20-8.954 20-20S31.046 0 20 0zm-4.896 28.29h-4.05V15.256h4.05V28.29zm-2.05-14.634c-1.279 0-2.106-.906-2.106-2.027 0-1.144.852-2.023 2.158-2.023s2.107.88 2.132 2.023c0 1.121-.825 2.027-2.184 2.027zM29.896 28.29h-4.05v-7.223c0-1.682-.588-2.823-2.052-2.823-1.119 0-1.784.773-2.077 1.516-.109.265-.136.64-.136 1.013v7.515H17.53v-8.875a87.02 87.02 0 00-.106-4.159h3.519l.185 1.81h.081c.534-.85 1.84-2.104 4.025-2.104 2.665 0 4.663 1.786 4.663 5.623v7.707z" fill="#383838"/></svg>