<svg width="40" height="40" fill="none" xmlns="http://www.w3.org/2000/svg"><path d="M20 0C8.954 0 0 8.954 0 20s8.954 20 20 20 20-8.954 20-20S31.046 0 20 0zm8.135 16.383c.009.171.01.342.01.509 0 5.208-3.96 11.21-11.205 11.21a11.115 11.115 0 01-6.038-1.77c.306.037.62.051.94.051a7.89 7.89 0 004.891-1.685 3.947 3.947 0 01-3.679-2.733c.59.112 1.198.088 1.777-.07a3.942 3.942 0 01-3.16-3.862v-.048a3.95 3.95 0 001.785.494 3.937 3.937 0 01-1.218-5.262 11.201 11.201 0 008.118 4.118 3.94 3.94 0 016.713-3.593 7.912 7.912 0 002.5-.957 3.959 3.959 0 01-1.732 2.182 7.913 7.913 0 002.263-.623 7.987 7.987 0 01-1.965 2.04z" fill="#383838"/></svg>