<svg width="201" height="201" fill="none" xmlns="http://www.w3.org/2000/svg"><path fill-rule="evenodd" clip-rule="evenodd" d="M151.39 148.984c-12.557 6.877-27.661.326-41.816 2.445-13.955 2.09-26.773 14.407-40.114 9.824-13.59-4.67-19.957-19.871-26.446-32.691-6.474-12.79-12.775-26.403-10.644-40.585 2.14-14.242 13.5-24.349 22.13-35.883 10.386-13.88 16.172-35.842 33.336-38.246 17.214-2.41 28.619 17.428 42.703 27.6 11.435 8.258 23.498 14.889 31.859 26.25 9.764 13.266 22.02 27.622 19.809 43.953-2.22 16.387-16.31 29.388-30.817 37.333z" fill="url(#paint0_linear)" fill-opacity=".5"/><defs><linearGradient id="paint0_linear" x1="152.513" y1="152.513" x2="47.787" y2="47.787" gradientUnits="userSpaceOnUse"><stop stop-color="#6D678E"/><stop offset="1" stop-color="#F6B5CC"/></linearGradient></defs></svg>