<svg width="192" height="197" fill="none" xmlns="http://www.w3.org/2000/svg"><path fill-rule="evenodd" clip-rule="evenodd" d="M59.328 38.226c13.91-3.393 26.802 6.845 41.025 8.46 14.02 1.594 29.589-6.985 41.288.895 11.919 8.027 14.135 24.359 17.085 38.421 2.943 14.03 5.505 28.81-.223 41.957-5.753 13.203-19.342 20.025-30.663 28.932-13.625 10.719-24.898 30.436-42.099 28.315-17.251-2.127-23.133-24.241-34.105-37.711-8.908-10.937-18.844-20.464-23.98-33.601-5.997-15.342-14.12-32.38-7.757-47.583 6.385-15.254 23.36-24.165 39.43-28.085z" fill="url(#paint0_linear)" fill-opacity=".5"/><defs><linearGradient id="paint0_linear" x1="59.157" y1="34.527" x2="133.209" y2="162.789" gradientUnits="userSpaceOnUse"><stop stop-color="#6D678E"/><stop offset="1" stop-color="#F6B5CC"/></linearGradient></defs></svg>