<svg width="163" height="174" fill="none" xmlns="http://www.w3.org/2000/svg"><path fill-rule="evenodd" clip-rule="evenodd" d="M94.494 17.55c12.623 6.757 15.391 22.985 24.903 33.68 9.378 10.545 26.698 14.547 30.151 28.223 3.518 13.933-5.732 27.574-12.921 40.015-7.172 12.412-15.128 25.128-28.169 31.096-13.096 5.992-27.768 2.002-42.144 1.079-17.3-1.11-38.854 6.048-50.248-7.012-11.427-13.097-1.048-33.491-.228-50.845.666-14.09-.375-27.815 4.569-41.026 5.773-15.427 11.096-33.538 25.98-40.611C61.323 5.05 79.912 9.743 94.494 17.55z" fill="url(#paint0_linear)" fill-opacity=".5"/><defs><linearGradient id="paint0_linear" x1="96.835" y1="14.681" x2="66.376" y2="159.619" gradientUnits="userSpaceOnUse"><stop stop-color="#6D678E"/><stop offset="1" stop-color="#F6B5CC"/></linearGradient></defs></svg>