<svg width="136" height="149" fill="none" xmlns="http://www.w3.org/2000/svg"><path fill-rule="evenodd" clip-rule="evenodd" d="M66.482 3.895c13.742 4.017 19.79 19.329 31.298 27.84 11.345 8.39 29.118 8.744 35.31 21.418 6.308 12.911.061 28.163-4.415 41.817-4.466 13.621-9.637 27.702-21.172 36.224-11.583 8.558-26.763 7.671-41.02 9.724-17.16 2.471-36.781 13.909-50.617 3.472-13.876-10.468-7.913-32.56-10.68-49.711C2.94 80.753-.901 67.535 1.22 53.589 3.696 37.306 5.18 18.488 18.293 8.504 31.449-1.515 50.606-.745 66.483 3.895z" fill="url(#paint0_linear)"/><defs><linearGradient id="paint0_linear" x1="68.183" y1=".606" x2="68.183" y2="148.71" gradientUnits="userSpaceOnUse"><stop stop-color="#6D678E"/><stop offset="1" stop-color="#F6B5CC"/></linearGradient></defs></svg>