<svg width="201" height="202" fill="none" xmlns="http://www.w3.org/2000/svg"><path fill-rule="evenodd" clip-rule="evenodd" d="M146.568 47.319c7.552 12.162 1.836 27.601 4.726 41.62 2.849 13.82 15.847 25.946 12 39.517-3.92 13.825-18.751 21.013-31.197 28.193-12.417 7.163-25.666 14.197-39.943 12.845-14.338-1.358-25.05-12.15-37.038-20.137-14.427-9.612-36.673-14.19-40.01-31.196-3.347-17.057 15.838-29.529 25.225-44.148 7.621-11.869 13.583-24.276 24.47-33.245 12.713-10.474 26.378-23.497 42.805-22.18 16.484 1.32 30.236 14.68 38.962 28.731z" fill="url(#paint0_linear)"/><defs><linearGradient id="paint0_linear" x1="150.03" y1="46.005" x2="51.182" y2="156.295" gradientUnits="userSpaceOnUse"><stop stop-color="#6D678E"/><stop offset="1" stop-color="#F6B5CC"/></linearGradient></defs></svg>