<svg width="170" height="179" fill="none" xmlns="http://www.w3.org/2000/svg"><path fill-rule="evenodd" clip-rule="evenodd" d="M105.108 157.061c-14.313-.322-24.117-13.548-37.437-18.79-13.13-5.168-30.389-.91-39.65-11.549-9.435-10.839-7.348-27.188-6.558-41.535.788-14.313 2.139-29.253 11.074-40.47 8.974-11.264 23.866-14.336 37.107-20.01C85.578 17.88 101.57 1.754 117.637 8.255c16.112 6.52 16.07 29.402 23.182 45.253 5.774 12.87 12.905 24.643 14.466 38.662 1.822 16.371 5.259 34.932-4.822 47.969-10.116 13.082-28.819 17.296-45.355 16.923z" fill="url(#paint0_linear)"/><defs><linearGradient id="paint0_linear" x1="104.316" y1="160.679" x2="65.984" y2="17.621" gradientUnits="userSpaceOnUse"><stop stop-color="#6D678E"/><stop offset="1" stop-color="#F6B5CC"/></linearGradient></defs></svg>